<?xml version="1.0" encoding="UTF-8" ?>
<!DOCTYPE svg PUBLIC "-//W3C//DTD SVG 1.1//EN" "http://www.w3.org/Graphics/SVG/1.1/DTD/svg11.dtd">
<svg width="225pt" height="225pt" viewBox="0 0 225 225" version="1.1" xmlns="http://www.w3.org/2000/svg">
<g id="#ffffffff">
<path fill="#ffffff" opacity="1.00" d=" M 102.20 9.25 C 125.58 6.88 149.70 12.74 169.30 25.72 C 191.62 40.31 208.06 63.75 213.72 89.84 C 218.82 112.02 216.16 135.85 206.48 156.42 C 196.18 178.49 177.85 196.69 155.70 206.82 C 135.00 216.36 111.08 218.81 88.90 213.50 C 63.44 207.69 40.57 191.66 26.14 169.92 C 13.22 150.70 7.12 127.03 9.10 103.96 C 10.90 81.36 20.43 59.47 35.77 42.78 C 52.76 23.90 76.92 11.71 102.20 9.25 M 45.91 44.98 C 29.48 60.96 19.34 83.14 17.83 106.00 C 35.48 105.85 53.12 106.01 70.77 105.92 C 73.12 90.30 84.97 76.61 100.13 72.15 C 112.44 68.14 126.50 70.58 136.97 78.10 C 146.14 84.60 152.48 94.83 154.24 105.93 C 171.89 105.99 189.53 105.86 207.17 106.00 C 205.31 75.91 188.02 47.39 162.28 31.73 C 147.31 22.43 129.65 17.44 112.02 17.69 C 87.53 17.56 63.23 27.69 45.91 44.98 M 108.04 82.09 C 93.20 83.98 81.16 98.01 81.80 113.01 C 81.61 129.03 95.93 143.36 111.95 143.20 C 126.53 143.80 140.31 132.50 142.70 118.13 C 144.76 107.64 140.80 96.29 132.69 89.34 C 126.05 83.45 116.80 80.80 108.04 82.09 M 17.83 119.00 C 19.63 148.14 35.90 175.82 60.34 191.75 C 80.61 205.25 106.22 210.30 130.11 205.72 C 150.16 202.06 168.80 191.55 182.51 176.50 C 196.95 160.87 205.72 140.22 207.17 119.00 C 189.52 119.15 171.87 118.99 154.22 119.09 C 151.94 134.31 140.62 147.73 125.98 152.49 C 114.12 156.69 100.45 154.92 89.90 148.14 C 79.77 141.75 72.60 130.94 70.78 119.09 C 53.13 118.98 35.48 119.16 17.83 119.00 Z" />
</g>
<g id="#282828ff">
<path fill="#282828" opacity="1.00" d=" M 108.24 0.00 L 116.78 0.00 C 139.35 1.06 161.62 8.66 179.68 22.32 C 201.61 38.61 217.34 63.10 222.69 89.92 C 223.94 95.72 224.31 101.64 225.00 107.51 L 225.00 116.71 C 223.83 143.62 213.01 170.02 194.40 189.54 C 176.81 208.31 152.63 220.86 127.07 223.99 C 123.63 224.36 120.17 224.66 116.73 225.00 L 109.25 225.00 C 81.31 224.11 53.82 212.64 33.94 192.91 C 13.12 172.87 0.85 144.54 0.00 115.68 L 0.00 109.19 C 0.48 102.72 0.98 96.22 2.32 89.86 C 8.22 60.23 26.87 33.51 52.42 17.44 C 69.04 6.74 88.55 1.00 108.24 0.00 M 102.20 9.25 C 76.92 11.71 52.76 23.90 35.77 42.78 C 20.43 59.47 10.90 81.36 9.10 103.96 C 7.12 127.03 13.22 150.70 26.14 169.92 C 40.57 191.66 63.44 207.69 88.90 213.50 C 111.08 218.81 135.00 216.36 155.70 206.82 C 177.85 196.69 196.18 178.49 206.48 156.42 C 216.16 135.85 218.82 112.02 213.72 89.84 C 208.06 63.75 191.62 40.31 169.30 25.72 C 149.70 12.74 125.58 6.88 102.20 9.25 Z" />
<path fill="#282828" opacity="1.00" d=" M 45.91 44.98 C 63.23 27.69 87.53 17.56 112.02 17.69 C 129.65 17.44 147.31 22.43 162.28 31.73 C 188.02 47.39 205.31 75.91 207.17 106.00 C 189.53 105.86 171.89 105.99 154.24 105.93 C 152.48 94.83 146.14 84.60 136.97 78.10 C 126.50 70.58 112.44 68.14 100.13 72.15 C 84.97 76.61 73.12 90.30 70.77 105.92 C 53.12 106.01 35.48 105.85 17.83 106.00 C 19.34 83.14 29.48 60.96 45.91 44.98 Z" />
<path fill="#282828" opacity="1.00" d=" M 108.04 82.09 C 116.80 80.80 126.05 83.45 132.69 89.34 C 140.80 96.29 144.76 107.64 142.70 118.13 C 140.31 132.50 126.53 143.80 111.95 143.20 C 95.93 143.36 81.61 129.03 81.80 113.01 C 81.16 98.01 93.20 83.98 108.04 82.09 Z" />
<path fill="#282828" opacity="1.00" d=" M 17.83 119.00 C 35.48 119.16 53.13 118.98 70.78 119.09 C 72.60 130.94 79.77 141.75 89.90 148.14 C 100.45 154.92 114.12 156.69 125.98 152.49 C 140.62 147.73 151.94 134.31 154.22 119.09 C 171.87 118.99 189.52 119.15 207.17 119.00 C 205.72 140.22 196.95 160.87 182.51 176.50 C 168.80 191.55 150.16 202.06 130.11 205.72 C 106.22 210.30 80.61 205.25 60.34 191.75 C 35.90 175.82 19.63 148.14 17.83 119.00 Z" />
</g>
</svg>
